<svg xmlns="http://www.w3.org/2000/svg" xmlns:xlink="http://www.w3.org/1999/xlink" width="524" height="373" viewBox="0 0 524 373">
  <defs>
    <clipPath id="clip-path">
      <rect id="Rectangle_38" data-name="Rectangle 38" width="524" height="373" transform="translate(1152 1119)" fill="#fff" stroke="#707070" stroke-width="1"/>
    </clipPath>
    <clipPath id="clip-path-2">
      <path id="Path_21" data-name="Path 21" d="M211.668,221.993H437.1V423.336H211.668Zm0,0" stroke="#707070" stroke-width="1.721"/>
    </clipPath>
    <clipPath id="clip-path-3">
      <path id="Path_20" data-name="Path 20" d="M299.9,175.476l166.9,103.1L348.78,469.638l-166.9-103.1Zm0,0" stroke="#707070" stroke-width="1.721"/>
    </clipPath>
    <clipPath id="clip-path-4">
      <path id="Path_19" data-name="Path 19" d="M299.809,175.415l166.9,103.1L348.693,469.577l-166.9-103.1Zm0,0" stroke="#707070" stroke-width="1.721"/>
    </clipPath>
    <clipPath id="clip-path-6">
      <path id="Path_23" data-name="Path 23" d="M109.108,136.42H536.315v373H109.108Zm0,0" stroke="#707070" stroke-width="1.721"/>
    </clipPath>
    <clipPath id="clip-path-7">
      <path id="Path_25" data-name="Path 25" d="M297.819,299.433h69.04v65.3h-69.04Zm0,0" transform="translate(0 0)" fill="#3b82f6"/>
    </clipPath>
    <clipPath id="clip-path-8">
      <path id="Path_27" data-name="Path 27" d="M297.819,299.359h49.045v46.464H297.819Zm0,0" fill="#3b82f6"/>
    </clipPath>
  </defs>
  <g id="Cooldeed-Logo" transform="translate(-1152 -1119)" clip-path="url(#clip-path)">
    <g id="Logo_cooldeed" data-name="Logo cooldeed" transform="translate(1082.289 976.58)">
      <g id="Group_8" data-name="Group 8" clip-path="url(#clip-path-2)">
        <g id="Group_7" data-name="Group 7" clip-path="url(#clip-path-3)">
          <g id="Group_6" data-name="Group 6" clip-path="url(#clip-path-4)">
            <g id="Group_5" data-name="Group 5" clip-path="url(#clip-path-4)">
              <path id="Path_17" data-name="Path 17" d="M435.348,321.683l-49.247-91.7a8,8,0,0,0-6.8-4.208l-104.053-2.991a8.03,8.03,0,0,0-7.045,3.8L213.409,315.3a8.019,8.019,0,0,0-.249,8.006L262.407,415a7.993,7.993,0,0,0,6.8,4.2l104.046,2.991a7.993,7.993,0,0,0,7.045-3.8l54.8-88.706A7.989,7.989,0,0,0,435.348,321.683Zm-26.754,35.7,2-64.876L428.3,325.488ZM287.85,254.7l22.768.659-34.76,18.762Zm-28.515,46.161-1.217,39.486-10.776-20.072ZM322.2,389.174l-56.654-35,2.05-66.684,58.7-31.675,56.661,35-2.05,66.684Zm-15.683-.45-22.768-.659L272.967,368Zm35.473-132.46,22.768.659,10.782,20.066Zm47.176,87.859,1.217-39.486,10.776,20.072ZM372.65,370.862l-11.992,19.414-22.775-.652Zm17.222-83.778-12.255-22.828,25.437,15.716-.921,29.934Zm-63.33-39.123-25.894-.739L327.007,233l25.437,15.71Zm-65.622,35.412-13.639,22.082.921-29.934L274.56,261.3Zm9.969,97.357-25.437-15.71.921-29.941Zm51.068,16.295,25.9.746L321.495,412l-25.437-15.716ZM401.22,339.53l-.921,29.941-26.358,14.224ZM379.05,233.784l17.706,32.979-55.122-34.055Zm-66.63-1.916L255.3,262.7,275,230.8ZM239.914,287.6l-2,64.876L220.2,319.5Zm29.537,123.6L251.745,378.23l55.122,34.048Zm66.637,1.916,57.118-30.828-19.7,31.9Zm0,0" fill="#1c1d1b" stroke="#707070" stroke-width="1.721"/>
            </g>
          </g>
        </g>
      </g>
      <g id="Group_9" data-name="Group 9" clip-path="url(#clip-path-6)">
        <path id="Path_22" data-name="Path 22" d="M210.33,142.96,111.158,314.853a15.3,15.3,0,0,0,0,15.253l99.172,171.9a15.239,15.239,0,0,0,13.2,7.623H421.87a15.25,15.25,0,0,0,13.2-7.623l99.165-171.893a15.283,15.283,0,0,0,0-15.246L435.073,142.981a15.241,15.241,0,0,0-13.2-7.623H223.526A15.178,15.178,0,0,0,210.33,142.96Zm84.525,7.623L187.871,212.4l35.654-61.81h71.329ZM249.386,449.545l-21.7-37.617L292.8,449.545Zm103.212,0,65.111-37.617L396,449.545Zm80.061-190.6V386.007L322.7,449.545,212.743,386.007V258.945L322.7,195.414Zm14.95,25.914,21.7,37.624-21.7,37.617ZM197.787,360.1l-21.7-37.617,21.7-37.624ZM292.8,195.42l-65.111,37.617L249.4,195.42Zm59.794,0H396l21.706,37.617ZM199.8,251.47l-24.691,42.787V237.212l49.374-28.529Zm0,142.026,24.684,42.78-49.374-28.522V350.709ZM322.7,464.5h49.368L322.7,493.031,273.33,464.5ZM470.3,350.709v57.044l-49.374,28.522ZM445.613,251.47l-24.691-42.787L470.3,237.212v57.044ZM273.33,180.457,322.7,151.935l49.368,28.522ZM124.36,322.483l35.661-61.81V384.293Zm63.511,110.082,106.983,61.8H223.539Zm162.677,61.8,106.983-61.8-35.654,61.8ZM521.042,322.483l-35.661,61.81V260.672ZM457.525,212.4,350.541,150.59h71.316Zm0,0" fill="#1c1d1b" stroke="#707070" stroke-width="1.721"/>
      </g>
      <g id="Group_10" data-name="Group 10" transform="translate(-8 -10)" clip-path="url(#clip-path-7)">
        <path id="Path_24" data-name="Path 24" d="M298.35,337.845l21.622,25.332c11.015-22.673,24.5-43.529,46.169-63.334-16.219,9.245-34.1,26.8-49.376,48.515Zm0,0" transform="translate(0.216 0.167)" fill="#3b82f6"/>
      </g>
      <g id="Group_11" data-name="Group 11" clip-path="url(#clip-path-8)">
        <path id="Path_26" data-name="Path 26" d="M35.686-25.012l15.361,18c7.825-16.107,17.4-30.924,32.8-44.994C72.324-45.441,59.618-32.971,48.768-17.543Zm0,0" transform="translate(262.667 351.849)" fill="none"/>
      </g>
    </g>
  </g>
</svg>
