<?xml version="1.0" encoding="UTF-8"?>
<svg width="700pt" height="700pt" version="1.1" viewBox="0 0 700 700" xmlns="http://www.w3.org/2000/svg" xmlns:xlink="http://www.w3.org/1999/xlink">
 <defs>
  <symbol id="m" overflow="visible">
   <path d="m29.312-1.75c-1.5117 0.78125-3.0898 1.3711-4.7344 1.7656-1.6367 0.40625-3.3398 0.60938-5.1094 0.60938-5.3125 0-9.5273-1.4844-12.641-4.4531-3.1055-2.9688-4.6562-7-4.6562-12.094s1.5508-9.125 4.6562-12.094c3.1133-2.9688 7.3281-4.4531 12.641-4.4531 1.7695 0 3.4727 0.19922 5.1094 0.59375 1.6445 0.39844 3.2227 0.99219 4.7344 1.7812v6.5938c-1.5312-1.0391-3.0391-1.8008-4.5156-2.2812-1.4805-0.48828-3.0391-0.73438-4.6719-0.73438-2.9375 0-5.2461 0.94531-6.9219 2.8281-1.6797 1.875-2.5156 4.4648-2.5156 7.7656 0 3.293 0.83594 5.8828 2.5156 7.7656 1.6758 1.875 3.9844 2.8125 6.9219 2.8125 1.6328 0 3.1914-0.23828 4.6719-0.71875 1.4766-0.48828 2.9844-1.2539 4.5156-2.2969z"/>
  </symbol>
  <symbol id="k" overflow="visible">
   <path d="m21.453-17.406c-0.67969-0.3125-1.3516-0.53906-2.0156-0.6875-0.65625-0.15625-1.3203-0.23438-1.9844-0.23438-1.9688 0-3.4844 0.63281-4.5469 1.8906-1.0547 1.2617-1.5781 3.0703-1.5781 5.4219v11.016h-7.6562v-23.922h7.6562v3.9219c0.97656-1.5625 2.1016-2.7031 3.375-3.4219 1.2812-0.71875 2.8125-1.0781 4.5938-1.0781 0.25 0 0.52344 0.011719 0.82812 0.03125 0.30078 0.023438 0.73438 0.070312 1.2969 0.14062z"/>
  </symbol>
  <symbol id="c" overflow="visible">
   <path d="m27.562-12.031v2.1875h-17.891c0.1875 1.793 0.83203 3.1367 1.9375 4.0312 1.1133 0.89844 2.6719 1.3438 4.6719 1.3438 1.6016 0 3.25-0.23438 4.9375-0.70312 1.6875-0.47656 3.4219-1.2031 5.2031-2.1719v5.8906c-1.8047 0.6875-3.6094 1.2031-5.4219 1.5469-1.8125 0.35156-3.6211 0.53125-5.4219 0.53125-4.3359 0-7.7031-1.0977-10.109-3.2969-2.3984-2.207-3.5938-5.2969-3.5938-9.2656 0-3.9062 1.1758-6.9727 3.5312-9.2031 2.3633-2.2383 5.6094-3.3594 9.7344-3.3594 3.7578 0 6.7695 1.1367 9.0312 3.4062 2.2578 2.2617 3.3906 5.2812 3.3906 9.0625zm-7.8594-2.5312c0-1.457-0.42969-2.6289-1.2812-3.5156-0.84375-0.89453-1.9492-1.3438-3.3125-1.3438-1.4922 0-2.6992 0.41797-3.625 1.25-0.91797 0.83594-1.4922 2.0391-1.7188 3.6094z"/>
  </symbol>
  <symbol id="a" overflow="visible">
   <path d="m14.391-10.766c-1.5938 0-2.793 0.27344-3.5938 0.8125-0.80469 0.54297-1.2031 1.3398-1.2031 2.3906 0 0.96875 0.32031 1.7305 0.96875 2.2812 0.64453 0.54297 1.5469 0.8125 2.7031 0.8125 1.4375 0 2.6445-0.51562 3.625-1.5469 0.98828-1.0312 1.4844-2.3203 1.4844-3.875v-0.875zm11.688-2.8906v13.656h-7.7031v-3.5469c-1.0312 1.4492-2.1875 2.5078-3.4688 3.1719s-2.8398 1-4.6719 1c-2.4805 0-4.4961-0.72266-6.0469-2.1719-1.543-1.4453-2.3125-3.3203-2.3125-5.625 0-2.8125 0.96094-4.8672 2.8906-6.1719 1.9375-1.3125 4.9688-1.9688 9.0938-1.9688h4.5156v-0.60938c0-1.207-0.48047-2.0938-1.4375-2.6562-0.94922-0.5625-2.4375-0.84375-4.4688-0.84375-1.6367 0-3.1562 0.16797-4.5625 0.5-1.4062 0.32422-2.7188 0.8125-3.9375 1.4688v-5.8281c1.6445-0.40625 3.2891-0.70703 4.9375-0.90625 1.6562-0.20703 3.3047-0.3125 4.9531-0.3125 4.3203 0 7.4375 0.85547 9.3438 2.5625 1.9141 1.6992 2.875 4.4609 2.875 8.2812z"/>
  </symbol>
  <symbol id="b" overflow="visible">
   <path d="m12.031-30.719v6.7969h7.875v5.4688h-7.875v10.141c0 1.1172 0.21875 1.8711 0.65625 2.2656 0.4375 0.38672 1.3125 0.57812 2.625 0.57812h3.9375v5.4688h-6.5625c-3.0234 0-5.1641-0.62891-6.4219-1.8906-1.2617-1.2578-1.8906-3.3984-1.8906-6.4219v-10.141h-3.7969v-5.4688h3.7969v-6.7969z"/>
  </symbol>
  <symbol id="j" overflow="visible">
   <path d="m19.953-20.422v-12.812h7.6875v33.234h-7.6875v-3.4531c-1.0547 1.4062-2.2148 2.4375-3.4844 3.0938-1.2734 0.65625-2.7422 0.98438-4.4062 0.98438-2.9492 0-5.3711-1.1719-7.2656-3.5156-1.8867-2.3438-2.8281-5.3594-2.8281-9.0469s0.94141-6.7031 2.8281-9.0469c1.8945-2.3438 4.3164-3.5156 7.2656-3.5156 1.6562 0 3.1172 0.33594 4.3906 1 1.2812 0.65625 2.4453 1.6836 3.5 3.0781zm-5.0469 15.484c1.6445 0 2.8945-0.59766 3.75-1.7969 0.86328-1.1953 1.2969-2.9297 1.2969-5.2031 0-2.2812-0.43359-4.0195-1.2969-5.2188-0.85547-1.1953-2.1055-1.7969-3.75-1.7969-1.625 0-2.8711 0.60156-3.7344 1.7969-0.85547 1.1992-1.2812 2.9375-1.2812 5.2188 0 2.2734 0.42578 4.0078 1.2812 5.2031 0.86328 1.1992 2.1094 1.7969 3.7344 1.7969z"/>
  </symbol>
  <symbol id="i" overflow="visible">
   <path d="m16.406-4.9375c1.6328 0 2.8828-0.59766 3.75-1.7969 0.86328-1.1953 1.2969-2.9297 1.2969-5.2031 0-2.2812-0.43359-4.0195-1.2969-5.2188-0.86719-1.1953-2.1172-1.7969-3.75-1.7969-1.6367 0-2.8906 0.60547-3.7656 1.8125-0.875 1.1992-1.3125 2.9336-1.3125 5.2031 0 2.2617 0.4375 3.9961 1.3125 5.2031 0.875 1.1992 2.1289 1.7969 3.7656 1.7969zm-5.0781-15.484c1.0508-1.3945 2.2188-2.4219 3.5-3.0781 1.2812-0.66406 2.7539-1 4.4219-1 2.9453 0 5.3672 1.1719 7.2656 3.5156 1.8945 2.3438 2.8438 5.3594 2.8438 9.0469s-0.94922 6.7031-2.8438 9.0469c-1.8984 2.3438-4.3203 3.5156-7.2656 3.5156-1.668 0-3.1406-0.33594-4.4219-1s-2.4492-1.6914-3.5-3.0781v3.4531h-7.6562v-33.234h7.6562z"/>
  </symbol>
  <symbol id="h" overflow="visible">
   <path d="m0.53125-23.922h7.6562l6.4219 16.234 5.4688-16.234h7.6562l-10.062 26.188c-1.0117 2.6641-2.1953 4.5234-3.5469 5.5781-1.3438 1.0625-3.1211 1.5938-5.3281 1.5938h-4.4219v-5.0156h2.3906c1.3008 0 2.2422-0.21094 2.8281-0.625 0.59375-0.40625 1.0547-1.1484 1.3906-2.2188l0.20312-0.65625z"/>
  </symbol>
  <symbol id="g" overflow="visible">
   <path d="m4.0156-31.891h9.1875l11.594 21.875v-21.875h7.7969v31.891h-9.1875l-11.594-21.875v21.875h-7.7969z"/>
  </symbol>
  <symbol id="f" overflow="visible">
   <path d="m3.6719-23.922h7.6562v23.922h-7.6562zm0-9.3125h7.6562v6.2344h-7.6562z"/>
  </symbol>
  <symbol id="e" overflow="visible">
   <path d="m27.734-14.562v14.562h-7.7031v-11.109c0-2.0938-0.046875-3.5312-0.14062-4.3125-0.085937-0.78125-0.24219-1.3594-0.46875-1.7344-0.30469-0.5-0.71094-0.88281-1.2188-1.1562-0.51172-0.28125-1.0938-0.42188-1.75-0.42188-1.5938 0-2.8516 0.61719-3.7656 1.8438-0.90625 1.2305-1.3594 2.9375-1.3594 5.125v11.766h-7.6562v-33.234h7.6562v12.812c1.1445-1.3945 2.3633-2.4219 3.6562-3.0781 1.3008-0.66406 2.7383-1 4.3125-1 2.7578 0 4.8516 0.85156 6.2812 2.5469 1.4375 1.6875 2.1562 4.1523 2.1562 7.3906z"/>
  </symbol>
  <symbol id="d" overflow="visible">
   <path d="m27.734-14.562v14.562h-7.7031v-11.156c0-2.0625-0.046875-3.4844-0.14062-4.2656-0.085937-0.78125-0.24219-1.3594-0.46875-1.7344-0.30469-0.5-0.71094-0.88281-1.2188-1.1562-0.51172-0.28125-1.0938-0.42188-1.75-0.42188-1.5938 0-2.8516 0.61719-3.7656 1.8438-0.90625 1.2305-1.3594 2.9375-1.3594 5.125v11.766h-7.6562v-23.922h7.6562v3.5c1.1445-1.3945 2.3633-2.4219 3.6562-3.0781 1.3008-0.66406 2.7383-1 4.3125-1 2.7578 0 4.8516 0.85156 6.2812 2.5469 1.4375 1.6875 2.1562 4.1523 2.1562 7.3906z"/>
  </symbol>
  <symbol id="l" overflow="visible">
   <path d="m0.21875-31.891h29.391v6.2188h-10.578v25.672h-8.2188v-25.672h-10.594z"/>
  </symbol>
 </defs>
 <g>
  <path d="m577.5 17.5h17.5v17.5h-17.5z"/>
  <path d="m577.5 52.5h17.5v17.5h-17.5z"/>
  <path d="m595 35h17.5v17.5h-17.5z"/>
  <path d="m560 35h17.5v17.5h-17.5z"/>
  <path d="m210 288.75h-17.5c0 48.734 19.359 95.473 53.82 129.93 34.457 34.461 81.195 53.82 129.93 53.82s95.473-19.359 129.93-53.82c34.461-34.457 53.82-81.195 53.82-129.93 0-5.7969-0.28125-11.586-0.82031-17.16-2.8945-30.504-13.367-59.809-30.465-85.238-17.098-25.434-40.277-46.191-67.434-60.387-43.254-22.461-93.617-26.953-140.16-12.504l5.2617 16.688h0.003906c36.785-11.402 76.375-9.8047 112.12 4.5156-2.6172 1.1875-5.3555 2.332-8.332 3.3711-17.406 5.6523-35.625 8.4141-53.926 8.1758-14.039 0.0625-28.035-1.4961-41.715-4.6523l-4.0664 17.023h-0.003906c12.16 2.8086 24.562 4.4453 37.035 4.8867v40.125c-14.719-0.11719-29.289-0.45703-43.312-1.1523l-0.87109 17.473c14.316 0.71094 29.176 1.0586 44.188 1.1758v58.836c-27.355-0.22266-54.215-1.4883-79.602-3.7422 0.16406-4.3477 0.24609-8.7148 0.59766-12.988l-17.449-1.4023c-0.33984 4.207-0.57031 8.4453-0.74219 12.637-8.4453-0.92969-16.742-1.9414-24.738-3.0977l-2.4961 17.32c8.707 1.2578 17.742 2.3594 26.965 3.3555l-0.007812 0.007813c0.19141 20.543 2.3281 41.02 6.3828 61.156-20.062-2.0547-39.004-4.7266-56.336-7.9727-6.625-18.086-10.035-37.188-10.078-56.449zm247.7 144.78c-3.9062-2.5938-8.0195-4.8633-12.297-6.7812 9.1797-17.504 16.367-35.98 21.43-55.09 20.168-1.8086 39.43-4.2031 57.238-7.1719-14.918 28.992-37.988 52.988-66.371 69.043zm84.805-144.78c-0.042969 19.262-3.4531 38.363-10.078 56.449-18.77 3.5156-39.449 6.3516-61.367 8.4648 4.0898-20.137 6.2578-40.617 6.4766-61.164 23.246-2.375 45-5.5742 64.691-9.5312 0.070313 1.9375 0.27734 3.832 0.27734 5.7812zm-1.8828-23.309c-19.219 3.9375-40.547 7.1211-63.391 9.4961v0.003906c-0.78906-19.5-3.3516-38.891-7.6602-57.926 18.754-1.7344 36.484-3.9844 52.945-6.7188h0.003906c9.3047 17.141 15.434 35.824 18.102 55.145zm-82.844-121.38c21.973 12.227 40.824 29.363 55.086 50.078-14.945 2.3125-30.945 4.2148-47.75 5.7148-4.8906-16.988-11.496-33.438-19.711-49.094 4.3008-1.8945 8.4375-4.1328 12.375-6.6992zm-72.773 19.328c14.789-0.48828 29.465-2.7461 43.719-6.7266 7.6719 14.164 13.895 29.066 18.578 44.477-20.219 1.4023-41.043 2.2148-62.297 2.3867zm0 57.637c22.863-0.18359 45.293-1.0586 66.98-2.6406 4.4727 19.098 7.0859 38.582 7.7969 58.184-23.871 1.9883-49.008 3.1211-74.777 3.332zm0 76.371c25.793-0.20703 50.988-1.3281 74.984-3.2969-0.32422 20.566-2.7266 41.047-7.1602 61.133-21.875 1.6602-44.668 2.6133-67.824 2.8047zm0 78.137c21.5-0.17578 42.719-0.98828 63.223-2.418v0.003906c-4.7734 16.52-11.297 32.484-19.457 47.621-14.273-3.9492-28.965-6.1836-43.766-6.6562zm-8.75 55.789c21.324-0.46875 42.523 3.4297 62.285 11.457-39.926 16.293-84.645 16.293-124.57 0 19.762-8.0273 40.961-11.926 62.285-11.457zm-77.008-58.578c22.055 1.6523 44.988 2.6016 68.258 2.793v38.547c-16.285 0.49219-32.426 3.1758-47.996 7.9766-8.5547-15.641-15.352-32.18-20.262-49.316zm68.258-75.316v60.609c-24.918-0.20703-49.449-1.2773-72.828-3.1797-4.4102-20.086-6.7852-40.562-7.0898-61.125 25.539 2.2305 52.5 3.4727 79.918 3.6953zm-86.895 73.734v-0.003906c5.2461 19.988 12.828 39.285 22.59 57.5-2.8906 1.4531-5.6953 3.0781-8.3906 4.8672-28.383-16.055-51.453-40.051-66.371-69.043 16.301 2.7148 33.859 4.9297 52.172 6.6758z"/>
  <path d="m168.81 539.94c2.5039 2.5 6.2656 3.25 9.5352 1.8945 3.2695-1.3516 5.4023-4.543 5.4023-8.082v-26.25h341.25v-17.5h-350c-2.3203 0-4.5469 0.92188-6.1875 2.5625s-2.5625 3.8672-2.5625 6.1875v13.879l-57.629-57.629 57.629-57.629v13.879c0 2.3203 0.92188 4.5469 2.5625 6.1875s3.8672 2.5625 6.1875 2.5625h43.75v-17.5h-35v-26.25c0-3.5391-2.1328-6.7305-5.4023-8.082-3.2695-1.3555-7.0312-0.60547-9.5352 1.8945l-78.75 78.75c-1.6406 1.6406-2.5625 3.8672-2.5625 6.1875s0.92188 4.5469 2.5625 6.1875z"/>
  <path d="m603.75 411.25h-78.75v17.5h70v61.25h-17.5v17.5h26.25c2.3203 0 4.5469-0.92188 6.1875-2.5625s2.5625-3.8672 2.5625-6.1875v-78.75c0-2.3203-0.92188-4.5469-2.5625-6.1875s-3.8672-2.5625-6.1875-2.5625z"/>
  <path d="m201.25 236.25c20.887 0 40.918-8.2969 55.684-23.066 14.77-14.766 23.066-34.797 23.066-55.684s-8.2969-40.918-23.066-55.684c-14.766-14.77-34.797-23.066-55.684-23.066s-40.918 8.2969-55.684 23.066c-14.77 14.766-23.066 34.797-23.066 55.684 0.023438 20.879 8.3281 40.895 23.09 55.66 14.766 14.762 34.781 23.066 55.66 23.09zm-8.75-139.3v16.801h17.5v-16.801c13.062 1.9062 25.16 7.9766 34.492 17.309 9.332 9.332 15.402 21.43 17.309 34.492h-16.801v17.5h16.801c-1.9062 13.062-7.9766 25.16-17.309 34.492-9.332 9.332-21.43 15.402-34.492 17.309v-16.801h-17.5v16.801c-13.062-1.9062-25.156-7.9766-34.492-17.309-9.332-9.3359-15.402-21.43-17.309-34.492h16.801v-17.5h-16.801c1.9062-13.062 7.9766-25.156 17.309-34.492 9.3359-9.332 21.43-15.402 34.492-17.309z"/>
  <path d="m181.19 189.94 26.25-26.25c1.6406-1.6406 2.5625-3.8672 2.5625-6.1875s-0.92188-4.5469-2.5625-6.1875l-26.25-26.25-12.375 12.375 20.066 20.062-20.062 20.062z"/>
  <path d="m201.25 271.25c29.383-0.046875 57.609-11.457 78.77-31.844 21.164-20.387 33.617-48.168 34.758-77.531 0.058594-1.4648 0.22266-2.8984 0.22266-4.375-0.035156-25.566-8.6641-50.379-24.5-70.445-15.836-20.07-37.965-34.23-62.82-40.207l21.824-13.094-9.0078-15.004-43.75 26.25v-0.003906c-3.3711 2.0234-4.9805 6.0508-3.9297 9.8398 1.0508 3.793 4.5 6.4141 8.4336 6.4141 31.391 0.011719 60.797 15.34 78.793 41.059 17.992 25.719 22.309 58.602 11.562 88.094-10.75 29.492-35.207 51.887-65.531 59.996-30.324 8.1133-62.695 0.92578-86.734-19.262-24.039-20.184-36.719-50.828-33.969-82.098 2.7461-31.27 20.574-59.23 47.762-74.918l-8.7656-15.148c-29.117 16.816-49.305 45.652-55.141 78.766-5.8359 33.113 3.2734 67.113 24.887 92.871s53.512 40.637 87.137 40.641z"/>
  <path d="m542.5 490h17.5v17.5h-17.5z"/>
 </g>
</svg>
