<?xml version="1.0" encoding="UTF-8"?>
<svg width="700pt" height="700pt" version="1.1" viewBox="0 0 700 700" xmlns="http://www.w3.org/2000/svg" xmlns:xlink="http://www.w3.org/1999/xlink">
 <defs>
  <symbol id="h" overflow="visible">
   <path d="m14.656-0.875c-0.76172 0.39844-1.5547 0.69531-2.375 0.89062-0.8125 0.19531-1.6641 0.29688-2.5469 0.29688-2.6562 0-4.7617-0.73828-6.3125-2.2188-1.5547-1.4883-2.3281-3.5039-2.3281-6.0469 0-2.5508 0.77344-4.5664 2.3281-6.0469 1.5508-1.4883 3.6562-2.2344 6.3125-2.2344 0.88281 0 1.7344 0.10156 2.5469 0.29688 0.82031 0.19922 1.6133 0.49609 2.375 0.89062v3.2969c-0.76172-0.51953-1.5117-0.89844-2.25-1.1406-0.74219-0.23828-1.5234-0.35938-2.3438-0.35938-1.4688 0-2.625 0.46875-3.4688 1.4062-0.83594 0.9375-1.25 2.2344-1.25 3.8906 0 1.6484 0.41406 2.9375 1.25 3.875 0.84375 0.9375 2 1.4062 3.4688 1.4062 0.82031 0 1.6016-0.11719 2.3438-0.35938 0.73828-0.23828 1.4883-0.61719 2.25-1.1406z"/>
  </symbol>
  <symbol id="b" overflow="visible">
   <path d="m10.719-8.7031c-0.33594-0.15625-0.66797-0.26953-1-0.34375-0.32422-0.082031-0.65625-0.125-1-0.125-0.98047 0-1.7344 0.32031-2.2656 0.95312-0.53125 0.625-0.79688 1.5273-0.79688 2.7031v5.5156h-3.8125v-11.969h3.8125v1.9688c0.48828-0.78125 1.0508-1.3477 1.6875-1.7031 0.64453-0.36328 1.4102-0.54688 2.2969-0.54688 0.13281 0 0.27344 0.007812 0.42188 0.015625 0.14453 0.011719 0.36328 0.03125 0.65625 0.0625z"/>
  </symbol>
  <symbol id="a" overflow="visible">
   <path d="m13.781-6.0156v1.0938h-8.9375c0.09375 0.89844 0.41406 1.5703 0.96875 2.0156 0.55078 0.44922 1.3281 0.67188 2.3281 0.67188 0.80078 0 1.625-0.11719 2.4688-0.35938 0.84375-0.23828 1.7109-0.59766 2.6094-1.0781v2.9531c-0.90625 0.33594-1.8125 0.58984-2.7188 0.76562s-1.8125 0.26562-2.7188 0.26562c-2.1562 0-3.8398-0.54688-5.0469-1.6406-1.1992-1.1016-1.7969-2.6484-1.7969-4.6406 0-1.9453 0.58594-3.4766 1.7656-4.5938 1.1758-1.125 2.8008-1.6875 4.875-1.6875 1.875 0 3.375 0.57031 4.5 1.7031 1.1328 1.125 1.7031 2.6367 1.7031 4.5312zm-3.9375-1.2656c0-0.72656-0.21484-1.3125-0.64062-1.75-0.41797-0.44531-0.96875-0.67188-1.6562-0.67188-0.74219 0-1.3438 0.21094-1.8125 0.625-0.46094 0.41797-0.74609 1.0156-0.85938 1.7969z"/>
  </symbol>
  <symbol id="d" overflow="visible">
   <path d="m7.2031-5.3906c-0.80469 0-1.4062 0.13672-1.8125 0.40625-0.39844 0.27344-0.59375 0.67188-0.59375 1.2031 0 0.48047 0.16016 0.85938 0.48438 1.1406 0.32031 0.27344 0.77344 0.40625 1.3594 0.40625 0.71875 0 1.3203-0.25391 1.8125-0.76562 0.48828-0.51953 0.73438-1.1719 0.73438-1.9531v-0.4375zm5.8438-1.4375v6.8281h-3.8594v-1.7656c-0.51172 0.71875-1.0898 1.2461-1.7344 1.5781-0.63672 0.33203-1.418 0.5-2.3438 0.5-1.2422 0-2.2461-0.35938-3.0156-1.0781-0.77344-0.72656-1.1562-1.6719-1.1562-2.8281 0-1.3945 0.47656-2.4219 1.4375-3.0781 0.96875-0.65625 2.4883-0.98438 4.5625-0.98438h2.25v-0.29688c0-0.60156-0.24219-1.0469-0.71875-1.3281-0.48047-0.28125-1.2266-0.42188-2.2344-0.42188-0.8125 0-1.5742 0.085937-2.2812 0.25-0.71094 0.15625-1.3672 0.40234-1.9688 0.73438v-2.9219c0.82031-0.19531 1.6445-0.34766 2.4688-0.45312 0.82031-0.10156 1.6484-0.15625 2.4844-0.15625 2.1562 0 3.7109 0.42969 4.6719 1.2812 0.95703 0.84375 1.4375 2.2266 1.4375 4.1406z"/>
  </symbol>
  <symbol id="c" overflow="visible">
   <path d="m6.0156-15.359v3.3906h3.9375v2.7344h-3.9375v5.0781c0 0.55469 0.10938 0.92969 0.32812 1.125 0.21875 0.19922 0.65625 0.29688 1.3125 0.29688h1.9688v2.7344h-3.2812c-1.5117 0-2.5859-0.3125-3.2188-0.9375-0.625-0.63281-0.9375-1.707-0.9375-3.2188v-5.0781h-1.9062v-2.7344h1.9062v-3.3906z"/>
  </symbol>
  <symbol id="k" overflow="visible">
   <path d="m9.9688-10.219v-6.4062h3.8594v16.625h-3.8594v-1.7344c-0.52344 0.71094-1.1016 1.2305-1.7344 1.5625-0.63672 0.32031-1.3711 0.48438-2.2031 0.48438-1.4688 0-2.6797-0.58203-3.625-1.75-0.94922-1.1758-1.4219-2.6875-1.4219-4.5312s0.47266-3.3477 1.4219-4.5156c0.94531-1.1758 2.1562-1.7656 3.625-1.7656 0.83203 0 1.5664 0.16797 2.2031 0.5 0.63281 0.32422 1.2109 0.83594 1.7344 1.5312zm-2.5156 7.75c0.82031 0 1.4453-0.29688 1.875-0.89062 0.42578-0.60156 0.64062-1.4727 0.64062-2.6094 0-1.1445-0.21484-2.0156-0.64062-2.6094-0.42969-0.59375-1.0547-0.89062-1.875-0.89062-0.8125 0-1.4336 0.29688-1.8594 0.89062-0.42969 0.59375-0.64062 1.4648-0.64062 2.6094 0 1.1367 0.21094 2.0078 0.64062 2.6094 0.42578 0.59375 1.0469 0.89062 1.8594 0.89062z"/>
  </symbol>
  <symbol id="j" overflow="visible">
   <path d="m8.2031-2.4688c0.82031 0 1.4453-0.29688 1.875-0.89062 0.42578-0.60156 0.64062-1.4727 0.64062-2.6094 0-1.1445-0.21484-2.0156-0.64062-2.6094-0.42969-0.59375-1.0547-0.89062-1.875-0.89062-0.82422 0-1.4531 0.30469-1.8906 0.90625-0.4375 0.59375-0.65625 1.4609-0.65625 2.5938 0 1.1367 0.21875 2.0078 0.65625 2.6094 0.4375 0.59375 1.0664 0.89062 1.8906 0.89062zm-2.5469-7.75c0.53125-0.69531 1.1133-1.207 1.75-1.5312 0.64453-0.33203 1.3828-0.5 2.2188-0.5 1.4688 0 2.6758 0.58984 3.625 1.7656 0.94531 1.168 1.4219 2.6719 1.4219 4.5156s-0.47656 3.3555-1.4219 4.5312c-0.94922 1.168-2.1562 1.75-3.625 1.75-0.83594 0-1.5742-0.16797-2.2188-0.5-0.63672-0.33203-1.2188-0.84766-1.75-1.5469v1.7344h-3.8125v-16.625h3.8125z"/>
  </symbol>
  <symbol id="i" overflow="visible">
   <path d="m0.26562-11.969h3.8281l3.2188 8.125 2.7344-8.125h3.8125l-5.0312 13.094c-0.5 1.332-1.0898 2.2656-1.7656 2.7969-0.66797 0.53125-1.5547 0.79688-2.6562 0.79688h-2.2188v-2.5h1.2031c0.64453 0 1.1133-0.10547 1.4062-0.3125 0.30078-0.21094 0.53125-0.57812 0.6875-1.1094l0.10938-0.34375z"/>
  </symbol>
  <symbol id="f" overflow="visible">
   <path d="m1.8438-11.969h3.8125v11.969h-3.8125zm0-4.6562h3.8125v3.125h-3.8125z"/>
  </symbol>
  <symbol id="u" overflow="visible">
   <path d="m0.32812-11.969h3.8281l2.9844 8.2656 2.9688-8.2656h3.8281l-4.7031 11.969h-4.2031z"/>
  </symbol>
  <symbol id="t" overflow="visible">
   <path d="m2.0156-15.953h5.2188l3.6406 8.5469 3.6562-8.5469h5.2188v15.953h-3.8906v-11.656l-3.6719 8.5938h-2.6094l-3.6719-8.5938v11.656h-3.8906z"/>
  </symbol>
  <symbol id="g" overflow="visible">
   <path d="m13.859-7.2812v7.2812h-3.8438v-5.5469c0-1.0508-0.027344-1.7695-0.078125-2.1562-0.042969-0.39453-0.12109-0.6875-0.23438-0.875-0.14844-0.25-0.35156-0.44141-0.60938-0.57812-0.25-0.14453-0.54297-0.21875-0.875-0.21875-0.79297 0-1.418 0.3125-1.875 0.9375-0.46094 0.61719-0.6875 1.4648-0.6875 2.5469v5.8906h-3.8125v-16.625h3.8125v6.4062c0.58203-0.69531 1.1953-1.207 1.8438-1.5312 0.64453-0.33203 1.3594-0.5 2.1406-0.5 1.3828 0 2.4297 0.42969 3.1406 1.2812 0.71875 0.84375 1.0781 2.0742 1.0781 3.6875z"/>
  </symbol>
  <symbol id="s" overflow="visible">
   <path d="m9.7031-16.625v2.5156h-2.1094c-0.54297 0-0.92188 0.10156-1.1406 0.29688-0.21094 0.19922-0.3125 0.53906-0.3125 1.0156v0.82812h3.2656v2.7344h-3.2656v9.2344h-3.8281v-9.2344h-1.8906v-2.7344h1.8906v-0.82812c0-1.3008 0.36328-2.2656 1.0938-2.8906 0.72656-0.625 1.8516-0.9375 3.375-0.9375z"/>
  </symbol>
  <symbol id="e" overflow="visible">
   <path d="m7.5312-9.5156c-0.84375 0-1.4922 0.30859-1.9375 0.92188-0.44922 0.60547-0.67188 1.4805-0.67188 2.625 0 1.1484 0.22266 2.0273 0.67188 2.6406 0.44531 0.60547 1.0938 0.90625 1.9375 0.90625 0.83203 0 1.4688-0.30078 1.9062-0.90625 0.44531-0.61328 0.67188-1.4922 0.67188-2.6406 0-1.1445-0.22656-2.0195-0.67188-2.625-0.4375-0.61328-1.0742-0.92188-1.9062-0.92188zm0-2.7344c2.0508 0 3.6562 0.55859 4.8125 1.6719 1.1641 1.1055 1.75 2.6406 1.75 4.6094s-0.58594 3.5117-1.75 4.625c-1.1562 1.1055-2.7617 1.6562-4.8125 1.6562-2.0625 0-3.6797-0.55078-4.8438-1.6562-1.168-1.1133-1.75-2.6562-1.75-4.625s0.58203-3.5039 1.75-4.6094c1.1641-1.1133 2.7812-1.6719 4.8438-1.6719z"/>
  </symbol>
  <symbol id="r" overflow="visible">
   <path d="m12.922-9.9688c0.48828-0.75 1.0625-1.3164 1.7188-1.7031 0.66406-0.38281 1.3984-0.57812 2.2031-0.57812 1.375 0 2.4219 0.42969 3.1406 1.2812 0.71875 0.84375 1.0781 2.0742 1.0781 3.6875v7.2812h-3.8438v-6.2344c0.007812-0.09375 0.015625-0.1875 0.015625-0.28125v-0.4375c0-0.84375-0.125-1.457-0.375-1.8438-0.25-0.38281-0.65234-0.57812-1.2031-0.57812-0.73047 0-1.293 0.30469-1.6875 0.90625-0.38672 0.59375-0.58984 1.4609-0.60938 2.5938v5.875h-3.8438v-6.2344c0-1.3203-0.11719-2.1758-0.34375-2.5625-0.23047-0.38281-0.63672-0.57812-1.2188-0.57812-0.73047 0-1.2969 0.30469-1.7031 0.90625-0.39844 0.60547-0.59375 1.4648-0.59375 2.5781v5.8906h-3.8438v-11.969h3.8438v1.75c0.46875-0.66406 1.0039-1.1719 1.6094-1.5156 0.61328-0.34375 1.2891-0.51562 2.0312-0.51562 0.82031 0 1.5508 0.19922 2.1875 0.59375 0.63281 0.39844 1.1133 0.96094 1.4375 1.6875z"/>
  </symbol>
  <symbol id="q" overflow="visible">
   <path d="m2.0156-15.953h4.5781l5.8125 10.938v-10.938h3.8906v15.953h-4.5938l-5.7969-10.938v10.938h-3.8906z"/>
  </symbol>
  <symbol id="p" overflow="visible">
   <path d="m1.7031-4.6562v-7.3125h3.8438v1.2031c0 0.64844-0.007813 1.4609-0.015625 2.4375v1.9688c0 0.96094 0.023438 1.6523 0.078125 2.0781 0.050781 0.41797 0.13281 0.72656 0.25 0.92188 0.15625 0.25 0.35938 0.44531 0.60938 0.57812 0.25781 0.13672 0.55078 0.20312 0.875 0.20312 0.80078 0 1.4258-0.30469 1.875-0.92188 0.45703-0.61328 0.6875-1.4688 0.6875-2.5625v-5.9062h3.8281v11.969h-3.8281v-1.7344c-0.57422 0.69922-1.1836 1.2148-1.8281 1.5469-0.64844 0.33203-1.3555 0.5-2.125 0.5-1.3867 0-2.4453-0.42188-3.1719-1.2656-0.71875-0.85156-1.0781-2.0859-1.0781-3.7031z"/>
  </symbol>
  <symbol id="o" overflow="visible">
   <path d="m13.859-7.2812v7.2812h-3.8438v-5.5781c0-1.0312-0.027344-1.7383-0.078125-2.125-0.042969-0.39453-0.12109-0.6875-0.23438-0.875-0.14844-0.25-0.35156-0.44141-0.60938-0.57812-0.25-0.14453-0.54297-0.21875-0.875-0.21875-0.79297 0-1.418 0.3125-1.875 0.9375-0.46094 0.61719-0.6875 1.4648-0.6875 2.5469v5.8906h-3.8125v-11.969h3.8125v1.75c0.58203-0.69531 1.1953-1.207 1.8438-1.5312 0.64453-0.33203 1.3594-0.5 2.1406-0.5 1.3828 0 2.4297 0.42969 3.1406 1.2812 0.71875 0.84375 1.0781 2.0742 1.0781 3.6875z"/>
  </symbol>
  <symbol id="n" overflow="visible">
   <path d="m2.0156-15.953h6.8125c2.0312 0 3.5859 0.45312 4.6719 1.3594 1.0938 0.89844 1.6406 2.1797 1.6406 3.8438 0 1.6797-0.54688 2.9688-1.6406 3.875-1.0859 0.89844-2.6406 1.3438-4.6719 1.3438h-2.7031v5.5312h-4.1094zm4.1094 2.9844v4.4531h2.2656c0.80078 0 1.4141-0.19141 1.8438-0.57812 0.4375-0.38281 0.65625-0.9375 0.65625-1.6562 0-0.70703-0.21875-1.2539-0.65625-1.6406-0.42969-0.38281-1.043-0.57812-1.8438-0.57812z"/>
  </symbol>
  <symbol id="m" overflow="visible">
   <path d="m1.8438-11.969h3.8125v11.75c0 1.6016-0.38672 2.8281-1.1562 3.6719-0.76172 0.84375-1.8711 1.2656-3.3281 1.2656h-1.8906v-2.5h0.65625c0.72656 0 1.2266-0.16797 1.5-0.5 0.26953-0.32422 0.40625-0.96875 0.40625-1.9375zm0-4.6562h3.8125v3.125h-3.8125z"/>
  </symbol>
  <symbol id="l" overflow="visible">
   <path d="m11.5-11.594v3.125c-0.52344-0.35156-1.043-0.61328-1.5625-0.78125-0.52344-0.17578-1.0625-0.26562-1.625-0.26562-1.0742 0-1.9062 0.3125-2.5 0.9375s-0.89062 1.4961-0.89062 2.6094c0 1.1172 0.29688 1.9844 0.89062 2.6094s1.4258 0.9375 2.5 0.9375c0.59375 0 1.1562-0.085937 1.6875-0.26562 0.53906-0.17578 1.0391-0.44141 1.5-0.79688v3.125c-0.59375 0.23047-1.1992 0.39453-1.8125 0.5-0.61719 0.11328-1.2344 0.17188-1.8594 0.17188-2.1562 0-3.8438-0.55078-5.0625-1.6562-1.2188-1.1133-1.8281-2.6562-1.8281-4.625s0.60938-3.5039 1.8281-4.6094c1.2188-1.1133 2.9062-1.6719 5.0625-1.6719 0.625 0 1.2383 0.058594 1.8438 0.17188 0.61328 0.10547 1.2227 0.26562 1.8281 0.48438z"/>
  </symbol>
 </defs>
 <g>
  <path d="m529.79 445.72c-3.0312-8.7109-9.5117-15.797-17.922-19.594-8.6289-3.9336-18.496-4.1484-27.293-0.60156l-98.523 39.062c1.3555-16.129-9.6133-32.383-23.121-40.375l-102.57-75.309c-2.4844-1.793-5.168-3.2852-8.0039-4.4453-0.52734-0.22266-1.0273-0.50781-1.5625-0.70312h0.003906c-3.3828-1.25-6.9258-2.0039-10.523-2.2461l-0.23438-0.011718-0.19141-0.011719-1.2695-0.066406h-0.054687c-1.1875-0.058594-2.4297-0.11328-3.8125-0.16016l0.003906-0.003906c-1.0352-0.03125-2.0625 0.125-3.0391 0.46484-0.59375 0.074219-1.2188 0.10938-1.7852 0.21094l-136.46 19.797c-2.2969 0.33594-4.3672 1.5664-5.7539 3.4258-1.3906 1.8594-1.9805 4.1953-1.6484 6.4922 0.69141 4.7812 5.1328 8.0977 9.9141 7.4023l136.73-19.844h0.003906c1.6445-0.29688 3.3164-0.39844 4.9844-0.3125 0.48828 0.023437 0.99609 0.046875 1.4492 0.078125h0.003906c3.9375 0.28516 7.7109 1.6875 10.883 4.0391l102.93 75.582c0.25781 0.19141 0.53125 0.36719 0.80859 0.53125 10.496 6.0469 17.129 18.816 14.188 27.328l0.003906-0.003907c-1.9727 5.6719-6.2617 10.234-11.797 12.559-5.0938 2.2109-10.875 2.2109-15.969 0.003906l-66.695-46.395c-1.9023-1.332-4.2578-1.8516-6.5469-1.4453-2.2891 0.41016-4.3203 1.7109-5.6445 3.6172-1.3281 1.9102-1.8438 4.2656-1.4297 6.5547 0.41406 2.2852 1.7188 4.3125 3.6289 5.6367l67.344 46.848c0.39453 0.27734 0.8125 0.51953 1.25 0.72656 5.0078 2.3633 10.48 3.5859 16.016 3.5781 5.0938 0 10.133-1.0195 14.828-2.9922 3.9336-1.6641 7.5625-3.9688 10.746-6.8164l117.36-46.527h-0.003906c4.375-1.7812 9.2891-1.6875 13.594 0.26172 4.0703 1.8359 7.2031 5.2656 8.6719 9.4844 1.3164 4.4727 0.87891 9.2773-1.2227 13.441-2.0977 4.1602-5.7031 7.3672-10.082 8.9688l-180.26 67.922c-2.4883 1.0156-5.3086 0.80078-7.6094-0.58203l-111.97-85.559-1.375-0.99609c-0.85938-0.625-1.7617-1.2734-2.6992-1.9336-0.26172-0.18359-0.54687-0.36719-0.81641-0.55078-0.69141-0.47656-1.3789-0.95312-2.1094-1.4219-0.39844-0.25781-0.82812-0.49219-1.2422-0.74219-0.63281-0.38672-1.2578-0.78125-1.9219-1.1445-0.41406-0.23047-0.85938-0.42188-1.2852-0.63672-0.69531-0.35547-1.3789-0.71875-2.1016-1.0312-0.41406-0.17969-0.85156-0.30859-1.2734-0.47266-0.76953-0.29688-1.5352-0.60938-2.3359-0.84766-0.42188-0.125-0.86719-0.1875-1.2969-0.29297-0.82812-0.22266-1.6719-0.40234-2.5234-0.53906-0.46484-0.066406-0.95312-0.050782-1.4297-0.089844h0.003906c-0.85938-0.089844-1.7188-0.13281-2.582-0.125-0.58594 0.019531-1.1992 0.14453-1.8008 0.20703-0.72656 0.082031-1.4375 0.097657-2.1797 0.25391l-80.133 10.395c-2.3008 0.29688-4.3906 1.4961-5.8047 3.3359-1.418 1.8398-2.0469 4.1641-1.7461 6.4648 0.62109 4.793 5.0117 8.1758 9.8047 7.5547l80.488-10.441c0.26953-0.035156 0.53516-0.082031 0.80078-0.14062 3.6289-0.83594 7.8672 1.9922 13.914 6.375l113.28 86.512c0.16406 0.12891 0.33203 0.24609 0.50781 0.35938v-0.003906c7.0547 4.6094 15.906 5.5117 23.742 2.4141l180.26-67.922c8.5938-3.2773 15.609-9.7188 19.605-18 3.9961-8.2852 4.6758-17.785 1.8906-26.551z"/>
  <path d="m401.84 243.41c3.5547 8.8594 10.766 15.75 19.777 18.902 0.25391 1.3945 0.41016 2.8047 0.46875 4.2188 0.035156 3.9609 0.89844 7.8711 2.543 11.473 2.5234 4.4727 6.3555 8.0625 10.984 10.289 3.7461 1.5273 6.5625 4.7227 7.6094 8.6328 1.8359 6.3359 6.2969 11.582 12.25 14.418 3.9414 1.5273 8.2383 1.8984 12.383 1.0664 0.99219-0.14844 1.9883-0.23828 2.9922-0.26953 3.9766 1.0078 7.5703 3.1719 10.324 6.2148 3.0742 2.7539 6.4141 5.1953 9.9766 7.2812 3.5586 1.957 7.5469 3.0078 11.609 3.0508 4.5703 0.10938 8.9922-1.6211 12.273-4.8008 2.3047-2.457 4.0391-5.3906 5.082-8.5938 0.27344-0.71094 0.66797-1.7266 0.94531-2.2422 1.1523-0.23438 2.3203-0.38281 3.4961-0.45312 4.4727 0.35938 8.9102-1.0078 12.41-3.8125 3.4961-2.8086 5.793-6.8477 6.4102-11.289 3.1445-13.199 5.8594-28.113-0.22656-40.973 5.0664-4.6094 7.1445-12.285 5.7266-21.656-0.54297-5.9492-3.125-11.531-7.3086-15.793-4.418-3.9336-10.43-5.5625-16.23-4.3945-0.27344-0.29297-0.54688-0.59375-0.82031-0.90234-1-1.0977-2.0039-2.1953-3.0703-3.2891-6.0469-5.7305-14.633-7.9023-22.68-5.7422-5.3555 1.6016-10.977 2.1445-16.543 1.5977-1.0664-0.054688-2.0781-0.10547-3.0352-0.13281-16.281-0.42969-20.977-5.8359-21.023-5.8711h0.003906c-0.80859-2.043-1.4336-4.1523-1.8633-6.3047-1.9141-7.8945-5.918-24.352-22.152-21.664v-0.003906c-3.8125 0.69141-7.457 2.0977-10.742 4.1445-0.40625 0.23047-0.77734 0.46094-1.125 0.63672-0.30469 0.039062-0.36328 0.14844-0.64844 0.03125-3.5898-1.4531-7.5664-1.6562-11.289-0.58203-3.9375 0.73047-7.375 3.125-9.4258 6.5664-3.4766 6.0039-1.4258 12.621 0.37891 18.461h0.003906c0.75 2.1133 1.2852 4.293 1.6016 6.5117-5.6406 11-6.0312 23.953-1.0664 35.273zm16.906-27.82c3.2266-6.3906 1.0391-13.457-0.72266-19.141-0.21094-0.67969-0.45703-1.4766-0.6875-2.2734 5.0508 1.2461 10.395 0.35156 14.766-2.4766 1.3945-0.89844 2.9297-1.5703 4.5391-1.9805 1.1875 2.707 2.0742 5.5352 2.6562 8.4336 0.73828 4.75 2.5469 9.2656 5.293 13.211 2.9375 3.5156 12.145 11.762 34.141 12.34 0.8125 0.019531 1.668 0.070313 2.5664 0.11719v-0.003906c7.6211 0.67969 15.297-0.11719 22.613-2.3438 1.7656-0.25391 3.5586 0.1875 5.0039 1.2305 0.92578 0.95312 1.793 1.9062 2.6602 2.8594 1.7109 1.8789 3.4805 3.8242 5.7344 5.8711v-0.003906c3.1523 2.707 7.7383 2.9258 11.133 0.52734 0.43359-0.1875 0.92969-0.16406 1.3477 0.0625 0.41406 0.37891 1.1992 1.5898 1.7812 5.457 0.39453 1.9805 0.37109 4.0234-0.0625 6l-0.49609 0.26172v-0.003906c-3.832 1.6094-6.6016 5.0352-7.375 9.1172-0.35938 3.2109 0.52734 6.4336 2.4727 9.0078 5.2773 7.9297 3.0117 19.949 0.23828 31.586-0.089843 0.39063-0.23437 1-0.30859 1.375-0.78906 0.15234-2.0703 0.26563-2.9922 0.34375h0.003907c-4.8477 0.007813-9.5586 1.6055-13.414 4.543-2.7109 2.543-4.7266 5.7344-5.8477 9.2773-0.27734 0.71875-0.67188 1.7422-0.91797 2.2305h-0.003906c-1.168-0.03125-2.3086-0.35156-3.3242-0.92969-2.5195-1.543-4.8906-3.3203-7.082-5.3047-5.3359-4.5078-11.977-10.113-21.191-10.332-0.19141-0.003907-0.37891-0.007813-0.56641-0.007813-1.6992 0.027344-3.3906 0.16406-5.0703 0.41016-1.0117 0.17969-2.0391 0.27734-3.0703 0.29297-1.3203-0.86328-2.2695-2.1875-2.6602-3.7148-2.3555-8.0977-8.0195-14.824-15.602-18.523-2.6367-1.5078-3.6055-2.1289-4.1523-3.1836-0.37109-1.5-0.57812-3.0391-0.60547-4.5859-0.36328-5.3516-1.1289-16.496-13-19.824-4.0195-1.75-7.1523-5.0547-8.6914-9.1602-2.8867-6.6953-2.5586-14.34 0.89453-20.762z"/>
  <path d="m430.83 27.027c-35.746-0.03125-70.719 10.43-100.57 30.082 5.4414 3.2266 10.621 6.875 15.492 10.91 6.1914-3.7031 12.621-7 19.242-9.8672 3.9453 16.539 20.199 16.738 29.477 16.852 4.1484-0.3125 8.3203 0.21094 12.266 1.5469 3.6328 2.0078 4.3359 4.5547 5.5859 10.121 1.6992 7.582 4.5117 20.133 23.703 22.742 0.39453 0.9375 0.83984 2.3086 1.1758 3.3125h-0.003907c1.0977 4.2891 3.1758 8.2695 6.0625 11.629 7.9609 8.1875 19.91 7.707 28.41 4.5273h0.003906c3.8594-1.5352 7.582-3.3906 11.133-5.5508 2.3828-1.4297 4.8438-2.7227 7.375-3.8711 2.9922-1.5352 6.4453-1.8945 9.6914-1.0117 0.16797 0.94531 0.30078 2.3672 0.39453 3.4062h-0.003906c0.03125 5.4844 1.7734 10.82 4.9844 15.27 3.5469 3.5547 7.9883 6.0898 12.859 7.332 2.3516 0.65234 4.5938 1.6641 6.6406 2.9961 1.7969 3.082 2.8828 6.5234 3.1797 10.078 0.87109 9.1875 4.5664 17.887 10.578 24.891 4.8555 4.957 11.469 7.793 18.402 7.8945 5.0273 0.058594 9.8945-1.7656 13.641-5.1133 1.8047-1.6953 3.3945-3.5977 4.7461-5.6719 0.58984-0.78906 1.1289-1.6133 1.6172-2.4727 2.2188 0.80469 4.3125 1.9297 6.207 3.3359 3.668 2.6562 7.7773 4.6367 12.141 5.8477 4.9961 33.145-0.16016 67.027-14.781 97.188-14.625 30.16-38.039 55.191-67.156 71.797-29.117 16.602-62.582 24.004-95.984 21.23-33.406-2.7695-65.191-15.59-91.172-36.77 1.2578-0.72656 2.4258-1.5977 3.4805-2.5977 10.273-9.9648 9.7109-23.719 9.2109-35.863-0.51562-12.527-0.49609-20.438 6.0195-24.988l0.003906-0.003906c9.0938-6.2617 15.613-15.609 18.352-26.309 1.0078-4.9922 1.0586-10.129 0.15625-15.141-6.793 8.5938-14.715 16.223-23.559 22.688-1.4883 1.6523-3.1562 3.1328-4.9727 4.418-14.707 10.27-14.027 26.785-13.484 40.055 0.46094 11.246 0.42969 18.375-3.9062 22.574-0.12109 0.12109-0.40234 0.36719-1.5234 0.36328h0.003906c-4.2422-0.71094-8.1406-2.7617-11.129-5.8555-10.117-11.754-18.547-24.867-25.047-38.953-3.5273 0.3125-7.0898 0.5-10.699 0.5-2.7969 0-5.5586-0.12891-8.3086-0.32031v0.003906c7.0742 17.211 16.719 33.25 28.598 47.57 0.30469 0.53516 0.66797 1.0352 1.0781 1.4961 0.42969 0.48047 0.92578 0.96484 1.4062 1.4492v0.003906c26.93 31.188 63.566 52.418 104.02 60.277 40.453 7.8555 82.371 1.8828 119.02-16.961 36.648-18.844 65.895-49.465 83.043-86.934 17.145-37.473 21.195-79.621 11.492-119.67-9.6992-40.051-32.582-75.68-64.973-101.15-32.391-25.477-72.406-39.32-113.61-39.309zm138.79 134.21c-3.582 1.9375-6.582 4.8008-8.6836 8.2891-0.60156 0.93359-1.2891 1.8125-2.0469 2.625-1.3984 1.25-5.4375 0.5625-7.8047-1.8945l-0.003906 0.003906c-3.4023-4.5039-5.4453-9.8867-5.8828-15.512-0.65234-6.3438-2.8516-12.434-6.4023-17.727-3.9414-4.4727-9.1445-7.6367-14.926-9.0859-1.7852-0.55469-3.5312-1.2383-5.2188-2.0469-0.57812-1.8281-0.90234-3.7266-0.96484-5.6406 0.21875-5.7031-2.0469-11.219-6.2109-15.121-4.1133-2.7773-8.8945-4.4023-13.852-4.7109-4.9531-0.30859-9.8984 0.71094-14.328 2.9531-3.1562 1.4102-6.2227 3.0039-9.1914 4.7773-2.7305 1.6719-5.5898 3.1211-8.5469 4.3398-3.0977 1.543-6.7617 1.4219-9.75-0.32422-0.85938-1.5469-1.5273-3.1875-1.9922-4.8945-1.6133-4.9219-4.6289-14.082-14.359-15.066-8.1562-0.82031-8.5234-2.4609-10.066-9.3516-1.0859-9.0273-6.3398-17.023-14.188-21.609-6.4297-2.9297-13.484-4.2109-20.535-3.7344-11.465-0.13672-12.867-0.91406-13.039-5.4375 28.172-8.7969 58.176-9.918 86.926-3.2461 28.746 6.668 55.195 20.883 76.617 41.184 21.422 20.301 37.039 45.945 45.246 74.293-5.3906-3.3438-12.746-6.9531-20.797-3.0625z"/>
  <path d="m132.39 179.06c0.58594 4.3359 4.2852 7.5742 8.6602 7.5781 0.39453 0 0.79297-0.023438 1.1836-0.074219 4.7891-0.65234 8.1445-5.0547 7.5-9.8438-0.72656-5.3945-1.0898-10.828-1.0898-16.27 0-4.832-3.918-8.75-8.75-8.75s-8.75 3.918-8.75 8.75c-0.003906 6.2227 0.41406 12.441 1.2461 18.609z"/>
  <path d="m186.31 247.86c-3.5156-3.3086-9.043-3.1484-12.359 0.35547-3.3164 3.5078-3.168 9.0352 0.33203 12.359 4.5273 4.2773 9.3359 8.25 14.395 11.883 3.9297 2.8125 9.3984 1.9102 12.211-2.0195 1.3516-1.8867 1.8984-4.2305 1.5195-6.5234-0.375-2.2891-1.6484-4.3359-3.5352-5.6875-4.418-3.168-8.6133-6.6328-12.562-10.367z"/>
  <path d="m227.61 273.46c-4.5312-1.6445-9.543 0.6875-11.199 5.2148-1.6602 4.5312 0.65625 9.5469 5.1797 11.219 5.8516 2.1445 11.844 3.8828 17.934 5.2109 2.2734 0.51563 4.6602 0.097657 6.625-1.1562 1.9688-1.25 3.3516-3.2383 3.8477-5.5156 0.49609-2.2773 0.066406-4.6602-1.2031-6.6172-1.2656-1.957-3.2617-3.3281-5.543-3.8086-5.3086-1.1602-10.535-2.6758-15.641-4.5469z"/>
  <path d="m158.43 208.04c-1.9141-4.4375-7.0625-6.4844-11.496-4.5703-4.4375 1.9141-6.4844 7.0625-4.5703 11.5 2.4688 5.7227 5.3281 11.273 8.5508 16.605 1.1992 1.9922 3.1406 3.4258 5.3945 3.9844 2.2539 0.55859 4.6406 0.19922 6.6289-1.0039 1.9883-1.1992 3.418-3.1445 3.9727-5.4023 0.55469-2.2539 0.1875-4.6406-1.0156-6.625-2.8125-4.6562-5.3086-9.4961-7.4648-14.488z"/>
  <path d="m133.79 129.18c-1.1445 4.6953 1.7344 9.4258 6.4297 10.574 0.67969 0.16406 1.3789 0.24609 2.0781 0.24609 4.0312-0.003906 7.5391-2.7617 8.4961-6.6797 5.8242-23.328 18.34-44.445 36.012-60.75 17.668-16.309 39.719-27.094 63.438-31.035l-5.3789 5.2852h0.003906c-1.9102 1.8555-2.8633 4.4844-2.5898 7.1289 0.26953 2.6484 1.7344 5.0273 3.9805 6.457-34.949 8.0039-63.16 33.715-74.367 67.773-11.207 34.055-3.7734 71.496 19.594 98.688 23.367 27.195 59.258 40.176 94.613 34.223 35.359-5.9531 65.02-29.973 78.195-63.316 13.172-33.348 7.9375-71.156-13.805-99.664-21.742-28.512-56.816-43.566-92.461-39.684l21.645-21.277 0.050781-0.058594 0.058594-0.046875c0.1875-0.19141 0.32812-0.41406 0.49609-0.61719 0.19922-0.22656 0.39062-0.46484 0.56641-0.71094 0.15625-0.23438 0.26172-0.48828 0.39453-0.73047 0.14844-0.25781 0.28516-0.51953 0.40625-0.78906 0.10547-0.25781 0.16406-0.53125 0.24219-0.79687 0.082031-0.27344 0.18359-0.54297 0.23438-0.82031 0.054688-0.27734 0.0625-0.55469 0.085938-0.83594 0.027343-0.27734 0.074218-0.55469 0.074218-0.83594s-0.046875-0.55469-0.074218-0.83594c-0.027344-0.27734-0.035157-0.55859-0.085938-0.83594-0.054688-0.28125-0.15625-0.54688-0.23438-0.82031-0.078125-0.26562-0.13672-0.53516-0.24219-0.79687-0.12109-0.26953-0.25781-0.53125-0.40625-0.78906-0.12891-0.24609-0.23828-0.49609-0.39453-0.73047-0.17578-0.24609-0.36719-0.48047-0.56641-0.70703-0.16797-0.20312-0.30859-0.42578-0.49609-0.61719l-0.058594-0.046876-0.046874-0.058593-22.543-22.16c-3.4492-3.3867-8.9883-3.3398-12.375 0.10938-3.3867 3.4453-3.3398 8.9883 0.10938 12.375l8.5078 8.3633c-28.297 3.4805-54.871 15.457-76.223 34.348-21.348 18.891-36.469 43.812-43.363 71.477zm220.03 22.52h-14.289c-4.832 0-8.75 3.918-8.75 8.75s3.918 8.75 8.75 8.75h14.289c-2.0469 19.449-10.715 37.605-24.551 51.426-13.832 13.824-31.996 22.473-51.449 24.504v-14.27c0-4.832-3.918-8.75-8.75-8.75-4.832 0-8.75 3.918-8.75 8.75v14.27c-19.449-2.0312-37.613-10.68-51.449-24.504-13.836-13.82-22.5-31.977-24.547-51.426h14.289c4.832 0 8.75-3.918 8.75-8.75s-3.918-8.75-8.75-8.75h-14.289c2.0469-19.449 10.711-37.605 24.547-51.426 13.836-13.824 32-22.473 51.449-24.5v14.27c0 4.832 3.918 8.75 8.75 8.75 4.832 0 8.75-3.918 8.75-8.75v-14.27c19.453 2.0273 37.613 10.676 51.449 24.5 13.836 13.82 22.504 31.977 24.551 51.426z"/>
  <path d="m277.82 148.44v-30.363c0-4.832-3.918-8.75-8.75-8.75-4.832 0-8.75 3.918-8.75 8.75v39.113c0 4.832 3.918 8.75 8.75 8.75 0.16797 0 0.32422-0.039062 0.48828-0.050781 0.16406 0.007812 0.32031 0.050781 0.48828 0.050781h23.492c4.832 0 8.75-3.918 8.75-8.75s-3.918-8.75-8.75-8.75z"/>
 </g>
</svg>
