<svg xmlns="http://www.w3.org/2000/svg" width="525" height="525" viewBox="0 0 525 525">
  <g id="not_proud" transform="translate(-87.5 -17.5)">
    <path id="Path_188" data-name="Path 188" d="M350,17.5C205.62,17.5,87.5,135.62,87.5,280S205.62,542.5,350,542.5,612.5,424.38,612.5,280,494.38,17.5,350,17.5Zm0,490c-125.12,0-227.5-102.38-227.5-227.5S224.88,52.5,350,52.5,577.5,154.88,577.5,280,475.12,507.5,350,507.5Z" fill="#fff"/>
    <path id="Path_189" data-name="Path 189" d="M455,183.75a35,35,0,1,1-35-35,35,35,0,0,1,35,35" fill="#fff"/>
    <path id="Path_190" data-name="Path 190" d="M315,183.75a35,35,0,1,1-35-35,35,35,0,0,1,35,35" fill="#fff"/>
    <path id="Path_191" data-name="Path 191" d="M350,271.25c-34.125,0-61.25,35-61.25,78.75s27.125,78.75,61.25,78.75,61.25-35,61.25-78.75S384.125,271.25,350,271.25Zm0,122.5c-12.25,0-26.25-18.375-26.25-43.75s14-43.75,26.25-43.75,26.25,18.375,26.25,43.75S362.25,393.75,350,393.75Z" fill="#fff"/>
  </g>
</svg>
