<svg xmlns="http://www.w3.org/2000/svg" width="543.401" height="565.186" viewBox="0 0 543.401 565.186">
  <g id="notes" transform="translate(-78.351 2.685)">
    <path id="Path_28" data-name="Path 28" d="M480.55,560H85.14a4.3,4.3,0,0,1-4.289-4.289l0-551.42A4.293,4.293,0,0,1,85.14,0H386.93a4.108,4.108,0,0,1,3.063,1.313L483.617,95.9a4.371,4.371,0,0,1,1.227,3.063v233.1a4.289,4.289,0,0,1-8.578,0V100.623L385.09,8.572H89.43v542.76H476.18V443.182a4.289,4.289,0,0,1,8.578,0V555.7a4.173,4.173,0,0,1-4.2,4.289Z" stroke="#000" stroke-width="5"/>
    <path id="Path_29" data-name="Path 29" d="M480.55,103.16H386.925a4.3,4.3,0,0,1-4.289-4.289V4.285A4.42,4.42,0,0,1,385.261.262a4.337,4.337,0,0,1,4.727.961l93.625,94.586a4.273,4.273,0,0,1,.875,4.727,4.211,4.211,0,0,1-3.937,2.625Zm-89.34-8.578h79.012l-79.012-79.8Z" stroke="#000" stroke-width="5"/>
    <path id="Path_30" data-name="Path 30" d="M386.93,164.59H165.73a4.289,4.289,0,0,1,0-8.578h221.2a4.289,4.289,0,1,1,0,8.578Z" stroke="#000" stroke-width="5"/>
    <path id="Path_31" data-name="Path 31" d="M386.93,272.39H165.73a4.289,4.289,0,0,1,0-8.578h221.2a4.289,4.289,0,0,1,0,8.578Z" stroke="#000" stroke-width="5"/>
    <path id="Path_32" data-name="Path 32" d="M386.93,380.27H165.73a4.289,4.289,0,0,1,0-8.578h221.2a4.289,4.289,0,0,1,0,8.578Z" stroke="#000" stroke-width="5"/>
    <path id="Path_33" data-name="Path 33" d="M386.93,488.16H165.73a4.289,4.289,0,0,1,0-8.578h221.2a4.289,4.289,0,1,1,0,8.578Z" stroke="#000" stroke-width="5"/>
    <path id="Path_34" data-name="Path 34" d="M477.93,451.24a4.938,4.938,0,0,1-2.449-.7l-51.625-35a4.251,4.251,0,0,1-1.137-5.949l134.14-197.84a20.78,20.78,0,0,1,28.789-5.512l24.5,16.625a20.78,20.78,0,0,1,5.512,28.789L481.52,449.394a4.5,4.5,0,0,1-2.711,1.836c-.352,0-.613,0-.875,0Zm-45.676-40.426L476.7,441l131.69-194.34a12.11,12.11,0,0,0-3.238-16.8l-24.5-16.625a12.11,12.11,0,0,0-16.8,3.238Z" stroke="#000" stroke-width="5"/>
    <path id="Path_35" data-name="Path 35" d="M419.91,488.16a4.225,4.225,0,0,1-4.285-4.637l6.387-71.926a4.416,4.416,0,0,1,4.637-3.937,4.309,4.309,0,0,1,3.938,4.637l-5.6,63.262,50.664-32.2a4.356,4.356,0,0,1,5.949,1.313,4.279,4.279,0,0,1-1.312,5.949l-58.012,36.926a4.777,4.777,0,0,1-2.363.613Z" stroke="#000" stroke-width="5"/>
    <path id="Path_36" data-name="Path 36" d="M592.9,281.57a4.939,4.939,0,0,1-2.449-.7l-51.625-35a4.283,4.283,0,1,1,4.813-7.086l51.625,35a4.251,4.251,0,0,1,1.137,5.949,4.059,4.059,0,0,1-3.5,1.836Z" stroke="#000" stroke-width="5"/>
  </g>
</svg>
