<svg xmlns="http://www.w3.org/2000/svg" width="560.01" height="559.998" viewBox="0 0 560.01 559.998">
  <g id="superman" transform="translate(-69.995 0.004)">
    <path id="Path_160" data-name="Path 160" d="M146.8,299.46a25.99,25.99,0,0,1,8.324,1.355,8.758,8.758,0,0,0,11.117-5.59A23.547,23.547,0,0,1,188.933,280a23.9,23.9,0,0,1,21.61,12.652l5.867-20.113v0A42.642,42.642,0,0,0,188.932,262.5a41.358,41.358,0,0,0-36,19.883,44.127,44.127,0,0,0-6.133-.426A40.344,40.344,0,0,0,105.858,316.7a39.65,39.65,0,0,0-35.863,38.368c0,21.328,18.461,38.684,41.156,38.684h69.9l5.105-17.5H111.15a21.313,21.313,0,1,1,0-42.367,24.5,24.5,0,0,1,2.676.137,8.741,8.741,0,0,0,9.582-10.258,17.065,17.065,0,0,1-.266-3.121A22.554,22.554,0,0,1,146.8,299.462Z"/>
    <path id="Path_161" data-name="Path 161" d="M597.43,448.48a40.3,40.3,0,0,0-41-35.273,43.625,43.625,0,0,0-7.648.668,41.409,41.409,0,0,0-29.7-19.605l4.859,16.656a26.517,26.517,0,0,1,.652,3.273,21.583,21.583,0,0,1,10.887,12.637,8.753,8.753,0,0,0,11.539,5.613,25.914,25.914,0,0,1,9.41-1.742,22.554,22.554,0,0,1,23.657,21.184,19.575,19.575,0,0,1-.258,3.1,8.752,8.752,0,0,0,9.141,10.145,21.306,21.306,0,1,1-.133,42.367H437.5v13.125c0,1.477-.109,2.926-.223,4.375h151.57c22.7,0,41.156-17.355,41.156-38.684a39.4,39.4,0,0,0-32.566-37.836Z"/>
    <path id="Path_162" data-name="Path 162" d="M192.85,415.82a8.748,8.748,0,0,0,4.324,10.2A328.333,328.333,0,0,0,262.5,451.9V433.7a310.915,310.915,0,0,1-50.824-19.922L262.5,239.507V214.37H251.6Z"/>
    <path id="Path_163" data-name="Path 163" d="M437.5,451.9a328.285,328.285,0,0,0,65.324-25.883,8.749,8.749,0,0,0,4.324-10.2L448.4,214.372H437.5v25.137l50.824,174.27A310.926,310.926,0,0,1,437.5,433.7Z"/>
    <path id="Path_164" data-name="Path 164" d="M439.62,62.5c0-.2-.047-.363-.047-.562A24.284,24.284,0,0,1,464.53,38.454c.746,0,1.473.121,2.211.184a51.3,51.3,0,0,1,17.105-3.605c.09,0,.18.008.27,0,.105-.254.242-.492.324-.758a25.405,25.405,0,0,1,47.933.4,8.906,8.906,0,0,0,11.66,5.656,26.2,26.2,0,0,1,9.813-1.883,24.277,24.277,0,0,1,24.949,23.488,16.137,16.137,0,0,0,.945,9.4,8.845,8.845,0,0,0,7.93,4.188A24.27,24.27,0,0,1,612.5,99.011,24.278,24.278,0,0,1,587.544,122.5H538.126V140h49.418A41.791,41.791,0,0,0,630,99.01a41.439,41.439,0,0,0-33.82-40.133,41.932,41.932,0,0,0-42.336-37.925,44.546,44.546,0,0,0-8.055.734A42.873,42.873,0,0,0,508.342,0a42.4,42.4,0,0,0-37.336,21.43,44.367,44.367,0,0,0-6.477-.477,42.94,42.94,0,0,0-33.57,15.957,87.109,87.109,0,0,1,6.4,30.207c.68-1.578,1.438-3.117,2.262-4.613Z"/>
    <path id="Path_165" data-name="Path 165" d="M350,167l-10.137-10.137a86.893,86.893,0,0,1-40.02-15.277l43.973,43.977h0a9.009,9.009,0,0,0,12.375,0l43.973-43.977h0a86.882,86.882,0,0,1-40.02,15.277Z"/>
    <path id="Path_166" data-name="Path 166" d="M347.63,139.82A70.8,70.8,0,0,0,420,70a70,70,0,0,0-140,0,70.963,70.963,0,0,0,67.632,69.817ZM350,17.5a52.562,52.562,0,1,1-37.105,15.4A52.511,52.511,0,0,1,350,17.5Z"/>
    <path id="Path_167" data-name="Path 167" d="M520.62,170.62v-81.8a36.518,36.518,0,0,0-36.2-36.308,35.269,35.269,0,0,0-33.8,34.98v35H419.828a87.979,87.979,0,0,1-17.555,17.5h57.1a8.751,8.751,0,0,0,8.75-8.75V87.495a17.847,17.847,0,0,1,16.895-17.488,18.638,18.638,0,0,1,18.105,18.816v81.8a8.756,8.756,0,0,1-8.75,8.75H411.246a8.751,8.751,0,0,0-8.75,8.75L402.484,315H297.494V188.12a8.751,8.751,0,0,0-8.75-8.75H205.619a8.756,8.756,0,0,1-8.75-8.75V87.5A17.821,17.821,0,0,1,213.912,70a18.5,18.5,0,0,1,17.957,18.6v42.645a8.751,8.751,0,0,0,8.75,8.75h57.1a87.976,87.976,0,0,1-17.555-17.5H249.369V88.6a36.32,36.32,0,0,0-35.9-36.094,35.213,35.213,0,0,0-34.1,34.988v83.125a26.273,26.273,0,0,0,26.25,26.25h74.375V520.62a39.346,39.346,0,0,0,70,24.7,39.345,39.345,0,0,0,70-24.7V196.87h74.375a26.273,26.273,0,0,0,26.25-26.25Zm-179.38,350a21.875,21.875,0,1,1-43.751,0V353.53l42.785,28.527c.309.207.645.359.965.543Zm8.746-153.12-52.5-35H402.48Zm52.5,153.12a21.875,21.875,0,1,1-43.751,0V382.59c.316-.184.645-.332.953-.535l42.8-28.535Z"/>
  </g>
</svg>
